<svg xmlns="http://www.w3.org/2000/svg" width="192" height="224" viewBox="0 0 192 224" fill="none">
    <defs>
    <linearGradient id="armor" x1="0" y1="-80" x2="0" y2="82" gradientUnits="userSpaceOnUse">
      <stop offset="0" stop-color="#68408b"/>
      <stop offset="0.56" stop-color="#744f94"/>
      <stop offset="1" stop-color="#170b20"/>
    </linearGradient>
    <linearGradient id="metal" x1="-38" y1="-64" x2="50" y2="78" gradientUnits="userSpaceOnUse">
      <stop offset="0" stop-color="#fff8dc"/>
      <stop offset="0.38" stop-color="#ff4b5f"/>
      <stop offset="1" stop-color="#7d4a25"/>
    </linearGradient>
    <radialGradient id="aura" cx="50%" cy="44%" r="62%">
      <stop offset="0" stop-color="#cb72ff" stop-opacity="0.46"/>
      <stop offset="1" stop-color="#cb72ff" stop-opacity="0"/>
    </radialGradient>
  </defs>
    <g transform="translate(96 139) scale(0.94)">
      <ellipse cx="0" cy="62" rx="45" ry="12" fill="#000" opacity="0.34"/>
      
    <g transform="rotate(3)">
      <ellipse cx="0" cy="-10" rx="48" ry="78" fill="url(#aura)" opacity="0.32"/>
      
    <path d="M-39 -30 C-90 4 -78 78 -24 116 C-11 80 10 80 28 116 C82 76 88 3 41 -30Z" fill="#68408b" opacity="0.5"/>
    <path d="M-48 -10 C-20 12 18 12 50 -10" stroke="#cb72ff" stroke-opacity="0.26" stroke-width="5"/>
  
      <g transform="rotate(16)"><path d="M-76 88 L70 -78" stroke="#cb72ff" stroke-width="15" stroke-linecap="round" opacity="0.18"/><path d="M-76 88 L70 -78" stroke="url(#metal)" stroke-width="7" stroke-linecap="round" stroke-linejoin="round"/><path d="M56 -92 L92 -98 L78 -64 L104 -48 L65 -44 L47 -16 L42 -50Z" fill="#ff4b5f"/></g>
      <g transform="rotate(10)"><path d="M-86 8 C-26 -34 46 -32 94 2" stroke="#cb72ff" stroke-width="9" stroke-linecap="round" opacity="0.2"/><path d="M-78 16 C-20 -18 42 -18 86 10" stroke="#fff8dc" stroke-width="3" stroke-linecap="round" opacity="0.34"/></g>
      <path d="M-34 -24 C-48 12 -44 48 -24 70 C-10 82 12 82 27 70 C47 44 48 8 35 -25 C21 -40 -20 -40 -34 -24Z" fill="url(#armor)" stroke="#120c0a" stroke-width="3"/>
      <path d="M-42 -18 C-63 -5 -63 20 -45 34 C-33 28 -27 4 -27 -21Z" fill="url(#metal)" stroke="#fff4cc" stroke-opacity="0.38" stroke-width="2"/>
      <path d="M42 -18 C63 -5 63 20 45 34 C33 28 27 4 27 -21Z" fill="url(#metal)" stroke="#fff4cc" stroke-opacity="0.38" stroke-width="2"/>
      <g transform="rotate(10)">
        <path d="M-26 -11 C-52 2 -63 22 -67 45" stroke="#d89168" stroke-width="8" stroke-linecap="round"/>
        <path d="M28 -11 C53 2 63 22 67 44" stroke="#d89168" stroke-width="8" stroke-linecap="round"/>
        <path d="M-29 -10 C-52 2 -60 17 -63 34" stroke="url(#metal)" stroke-width="4" stroke-linecap="round"/>
        <path d="M31 -10 C54 2 61 17 64 34" stroke="url(#metal)" stroke-width="4" stroke-linecap="round"/>
      </g>
      <path d="M-22 68 C-25 92 -34 106 -44 118" stroke="#170b20" stroke-width="12" stroke-linecap="round"/>
      <path d="M22 68 C28 92 38 105 48 116" stroke="#170b20" stroke-width="12" stroke-linecap="round"/>
      <path d="M-22 68 C-25 92 -34 106 -44 118" stroke="#ff4b5f" stroke-width="3" stroke-linecap="round" opacity="0.72"/>
      <path d="M22 68 C28 92 38 105 48 116" stroke="#ff4b5f" stroke-width="3" stroke-linecap="round" opacity="0.72"/>
      
    <g transform="translate(0 -52) scale(1)">
      <path d="M-29 -10 C-33 -36 33 -37 30 -9 C14 -20 -14 -20 -29 -10Z" fill="#160912"/>
      <path d="M-22 -4 C-20 -27 19 -27 22 -4 C22 18 12 30 0 32 C-13 30 -23 18 -22 -4Z" fill="#d89168" stroke="#21110c" stroke-width="3"/>
      
    <path d="M-24 -6 C-16 -33 16 -34 25 -6 C9 -16 -10 -16 -24 -6Z" fill="#160912"/>
    <path d="M-17 -5 C-10 -25 -2 -27 -4 2" fill="#574e54" opacity="0.28"/>
    <path d="M5 -4 C13 -26 23 -20 21 5" fill="#574e54" opacity="0.2"/>
  <path d="M-9 -24 C-38 -60 -12 -76 0 -36 C14 -78 42 -58 9 -23" fill="#ff4b5f"/><path d="M-26 -5 C-7 -18 11 -18 29 -5" stroke="#ff4b5f" stroke-width="5" stroke-linecap="round"/>
      
    
    <path d="M-15 3 C-13 -2 -5 -2 -3 3 C-6 7 -12 7 -15 3Z" fill="#fff8ea" stroke="#21110e" stroke-width="2"/>
    <ellipse cx="-9" cy="3" rx="2.6" ry="4.1" fill="#ff3854"/>
    <ellipse cx="-9" cy="4" rx="1.25" ry="2.5" fill="#21110e"/>
    <circle cx="-9.9" cy="1" r="1" fill="#ffffff"/>
  
    
    <path d="M4 3 C6 -2 14 -2 16 3 C13 7 7 7 4 3Z" fill="#fff8ea" stroke="#21110e" stroke-width="2"/>
    <ellipse cx="10" cy="3" rx="2.6" ry="4.1" fill="#ff3854"/>
    <ellipse cx="10" cy="4" rx="1.25" ry="2.5" fill="#21110e"/>
    <circle cx="9.1" cy="1" r="1" fill="#ffffff"/>
  
    <path d="M-15 -1 C-8 -5 -3 -5 1 -2" stroke="#160912" stroke-width="3" stroke-linecap="round"/>
    <path d="M5 -2 C11 -6 17 -6 21 -2" stroke="#160912" stroke-width="3" stroke-linecap="round"/>
  
      <path d="M-2 9 L3 13 L-3 15" stroke="#8b4b35" stroke-width="2" stroke-linecap="round" stroke-linejoin="round"/>
      <path d="M-8 21 C-2 18 5 18 11 22" stroke="#7a2524" stroke-width="3" stroke-linecap="round"/>
      <path d="M-18 -10 C-9 -18 10 -18 20 -10" stroke="#fff5d8" stroke-opacity="0.18" stroke-width="2" stroke-linecap="round"/>
      
    </g>
  
      <path d="M-27 8 L-11 30 L0 62 L11 30 L27 8" stroke="url(#metal)" stroke-width="3.5" stroke-linecap="round" opacity="0.95"/>
      <path d="M-24 23 H24 M-19 39 H19 M-12 55 H12" stroke="#fff8dc" stroke-opacity="0.3" stroke-width="2"/>
      <path d="M-33 42 C-12 51 14 47 36 37" stroke="#ff4b5f" stroke-width="4" stroke-linecap="round" opacity="0.78"/>
    </g>
  
    </g>
  </svg>