<svg xmlns="http://www.w3.org/2000/svg" width="768" height="224" viewBox="0 0 768 224" fill="none">
          <g transform="translate(0 0)">
            <rect width="192" height="224" fill="none"/>
            <defs>
    <linearGradient id="armor-0" x1="0" y1="-80" x2="0" y2="82" gradientUnits="userSpaceOnUse">
      <stop offset="0" stop-color="#344d88"/>
      <stop offset="0.56" stop-color="#445b92"/>
      <stop offset="1" stop-color="#141725"/>
    </linearGradient>
    <linearGradient id="metal-0" x1="-38" y1="-64" x2="50" y2="78" gradientUnits="userSpaceOnUse">
      <stop offset="0" stop-color="#fff8dc"/>
      <stop offset="0.38" stop-color="#dd514b"/>
      <stop offset="1" stop-color="#7d4a25"/>
    </linearGradient>
    <radialGradient id="aura-0" cx="50%" cy="44%" r="62%">
      <stop offset="0" stop-color="#ff756d" stop-opacity="0.46"/>
      <stop offset="1" stop-color="#ff756d" stop-opacity="0"/>
    </radialGradient>
  </defs>
            <g transform="translate(96 139) scale(0.94)">
              <ellipse cx="0" cy="62" rx="45" ry="12" fill="#000" opacity="0.34"/>
              
    <g transform="rotate(-2)">
      <ellipse cx="0" cy="-10" rx="48" ry="78" fill="url(#aura-0)" opacity="0.32"/>
      
    <path d="M-39 -30 C-90 4 -78 78 -24 116 C-11 80 10 80 28 116 C82 76 88 3 41 -30Z" fill="#344d88" opacity="0.5"/>
    <path d="M-48 -10 C-20 12 18 12 50 -10" stroke="#ff756d" stroke-opacity="0.26" stroke-width="5"/>
  
      <g transform="rotate(-8)"><path d="M-62 76 L46 -58" stroke="#ff756d" stroke-width="15" stroke-linecap="round" opacity="0.18"/><path d="M-62 76 L46 -58" stroke="url(#metal-0)" stroke-width="7" stroke-linecap="round" stroke-linejoin="round"/><path d="M36 -72 C76 -52 76 -12 38 8 C52 -25 40 -36 15 -48Z" fill="#dd514b"/></g>
      
      <path d="M-34 -24 C-48 12 -44 48 -24 70 C-10 82 12 82 27 70 C47 44 48 8 35 -25 C21 -40 -20 -40 -34 -24Z" fill="url(#armor-0)" stroke="#120c0a" stroke-width="3"/>
      <path d="M-42 -18 C-63 -5 -63 20 -45 34 C-33 28 -27 4 -27 -21Z" fill="url(#metal-0)" stroke="#fff4cc" stroke-opacity="0.38" stroke-width="2"/>
      <path d="M42 -18 C63 -5 63 20 45 34 C33 28 27 4 27 -21Z" fill="url(#metal-0)" stroke="#fff4cc" stroke-opacity="0.38" stroke-width="2"/>
      <g transform="rotate(-12)">
        <path d="M-26 -11 C-52 2 -63 22 -67 45" stroke="#f0b07f" stroke-width="8" stroke-linecap="round"/>
        <path d="M28 -11 C53 2 63 22 67 44" stroke="#f0b07f" stroke-width="8" stroke-linecap="round"/>
        <path d="M-29 -10 C-52 2 -60 17 -63 34" stroke="url(#metal-0)" stroke-width="4" stroke-linecap="round"/>
        <path d="M31 -10 C54 2 61 17 64 34" stroke="url(#metal-0)" stroke-width="4" stroke-linecap="round"/>
      </g>
      <path d="M-22 68 C-25 92 -34 106 -44 118" stroke="#141725" stroke-width="12" stroke-linecap="round"/>
      <path d="M22 68 C28 92 38 105 48 116" stroke="#141725" stroke-width="12" stroke-linecap="round"/>
      <path d="M-22 68 C-25 92 -34 106 -44 118" stroke="#dd514b" stroke-width="3" stroke-linecap="round" opacity="0.72"/>
      <path d="M22 68 C28 92 38 105 48 116" stroke="#dd514b" stroke-width="3" stroke-linecap="round" opacity="0.72"/>
      
    <g transform="translate(0 -52) scale(1)">
      <path d="M-29 -10 C-33 -36 33 -37 30 -9 C14 -20 -14 -20 -29 -10Z" fill="#20151a"/>
      <path d="M-22 -4 C-20 -27 19 -27 22 -4 C22 18 12 30 0 32 C-13 30 -23 18 -22 -4Z" fill="#f0b07f" stroke="#21110c" stroke-width="3"/>
      
    <path d="M-24 -6 C-16 -33 16 -34 25 -6 C9 -16 -10 -16 -24 -6Z" fill="#20151a"/>
    <path d="M-17 -5 C-10 -25 -2 -27 -4 2" fill="#5e575a" opacity="0.28"/>
    <path d="M5 -4 C13 -26 23 -20 21 5" fill="#5e575a" opacity="0.2"/>
  <path d="M-24 -9 L-38 -30 L-11 -20 L-3 -40 L9 -18 L33 -31 L23 -7" fill="#20151a"/>
      
    <path d="M-18 -1 C-12 -8 -3 -7 2 -1 C-4 8 -13 8 -18 -1Z" fill="#1b1110"/><path d="M-19 -7 L4 10" stroke="#0c0707" stroke-width="3" stroke-linecap="round"/>
    
    <path d="M4 3 C6 -2 14 -2 16 3 C13 7 7 7 4 3Z" fill="#fff8ea" stroke="#21110e" stroke-width="2"/>
    <ellipse cx="10" cy="3" rx="2.6" ry="4.1" fill="#ff8a6d"/>
    <ellipse cx="10" cy="4" rx="1.25" ry="2.5" fill="#21110e"/>
    <circle cx="9.1" cy="1" r="1" fill="#ffffff"/>
  
    <path d="M-15 -1 C-8 -5 -3 -5 1 -2" stroke="#20151a" stroke-width="3" stroke-linecap="round"/>
    <path d="M5 -2 C11 -6 17 -6 21 -2" stroke="#20151a" stroke-width="3" stroke-linecap="round"/>
  
      <path d="M-2 9 L3 13 L-3 15" stroke="#8b4b35" stroke-width="2" stroke-linecap="round" stroke-linejoin="round"/>
      <path d="M-8 21 C-2 18 5 18 11 22" stroke="#7a2524" stroke-width="3" stroke-linecap="round"/>
      <path d="M-18 -10 C-9 -18 10 -18 20 -10" stroke="#fff5d8" stroke-opacity="0.18" stroke-width="2" stroke-linecap="round"/>
      
    </g>
  
      <path d="M-27 8 L-11 30 L0 62 L11 30 L27 8" stroke="url(#metal-0)" stroke-width="3.5" stroke-linecap="round" opacity="0.95"/>
      <path d="M-24 23 H24 M-19 39 H19 M-12 55 H12" stroke="#fff8dc" stroke-opacity="0.3" stroke-width="2"/>
      <path d="M-33 40 C-12 49 14 49 36 39" stroke="#dd514b" stroke-width="4" stroke-linecap="round" opacity="0.78"/>
    </g>
  
            </g>
          </g>
        
          <g transform="translate(192 0)">
            <rect width="192" height="224" fill="none"/>
            <defs>
    <linearGradient id="armor-1" x1="0" y1="-80" x2="0" y2="82" gradientUnits="userSpaceOnUse">
      <stop offset="0" stop-color="#344d88"/>
      <stop offset="0.56" stop-color="#445b92"/>
      <stop offset="1" stop-color="#141725"/>
    </linearGradient>
    <linearGradient id="metal-1" x1="-38" y1="-64" x2="50" y2="78" gradientUnits="userSpaceOnUse">
      <stop offset="0" stop-color="#fff8dc"/>
      <stop offset="0.38" stop-color="#dd514b"/>
      <stop offset="1" stop-color="#7d4a25"/>
    </linearGradient>
    <radialGradient id="aura-1" cx="50%" cy="44%" r="62%">
      <stop offset="0" stop-color="#ff756d" stop-opacity="0.46"/>
      <stop offset="1" stop-color="#ff756d" stop-opacity="0"/>
    </radialGradient>
  </defs>
            <g transform="translate(96 139) scale(0.94)">
              <ellipse cx="0" cy="62" rx="45" ry="12" fill="#000" opacity="0.34"/>
              
    <g transform="rotate(-9)">
      <ellipse cx="0" cy="-10" rx="48" ry="78" fill="url(#aura-1)" opacity="0.32"/>
      
    <path d="M-39 -30 C-90 4 -78 78 -24 116 C-11 80 10 80 28 116 C82 76 88 3 41 -30Z" fill="#344d88" opacity="0.5"/>
    <path d="M-48 -10 C-20 12 18 12 50 -10" stroke="#ff756d" stroke-opacity="0.26" stroke-width="5"/>
  
      <g transform="rotate(-32)"><path d="M-62 76 L46 -58" stroke="#ff756d" stroke-width="15" stroke-linecap="round" opacity="0.18"/><path d="M-62 76 L46 -58" stroke="url(#metal-1)" stroke-width="7" stroke-linecap="round" stroke-linejoin="round"/><path d="M36 -72 C76 -52 76 -12 38 8 C52 -25 40 -36 15 -48Z" fill="#dd514b"/></g>
      <g transform="rotate(-18)"><path d="M-86 8 C-26 -34 46 -32 94 2" stroke="#ff756d" stroke-width="9" stroke-linecap="round" opacity="0.2"/><path d="M-78 16 C-20 -18 42 -18 86 10" stroke="#fff8dc" stroke-width="3" stroke-linecap="round" opacity="0.34"/></g>
      <path d="M-34 -24 C-48 12 -44 48 -24 70 C-10 82 12 82 27 70 C47 44 48 8 35 -25 C21 -40 -20 -40 -34 -24Z" fill="url(#armor-1)" stroke="#120c0a" stroke-width="3"/>
      <path d="M-42 -18 C-63 -5 -63 20 -45 34 C-33 28 -27 4 -27 -21Z" fill="url(#metal-1)" stroke="#fff4cc" stroke-opacity="0.38" stroke-width="2"/>
      <path d="M42 -18 C63 -5 63 20 45 34 C33 28 27 4 27 -21Z" fill="url(#metal-1)" stroke="#fff4cc" stroke-opacity="0.38" stroke-width="2"/>
      <g transform="rotate(-34)">
        <path d="M-26 -11 C-52 2 -63 22 -67 45" stroke="#f0b07f" stroke-width="8" stroke-linecap="round"/>
        <path d="M28 -11 C53 2 63 22 67 44" stroke="#f0b07f" stroke-width="8" stroke-linecap="round"/>
        <path d="M-29 -10 C-52 2 -60 17 -63 34" stroke="url(#metal-1)" stroke-width="4" stroke-linecap="round"/>
        <path d="M31 -10 C54 2 61 17 64 34" stroke="url(#metal-1)" stroke-width="4" stroke-linecap="round"/>
      </g>
      <path d="M-22 68 C-25 92 -34 106 -44 118" stroke="#141725" stroke-width="12" stroke-linecap="round"/>
      <path d="M22 68 C28 92 38 105 48 116" stroke="#141725" stroke-width="12" stroke-linecap="round"/>
      <path d="M-22 68 C-25 92 -34 106 -44 118" stroke="#dd514b" stroke-width="3" stroke-linecap="round" opacity="0.72"/>
      <path d="M22 68 C28 92 38 105 48 116" stroke="#dd514b" stroke-width="3" stroke-linecap="round" opacity="0.72"/>
      
    <g transform="translate(0 -52) scale(1)">
      <path d="M-29 -10 C-33 -36 33 -37 30 -9 C14 -20 -14 -20 -29 -10Z" fill="#20151a"/>
      <path d="M-22 -4 C-20 -27 19 -27 22 -4 C22 18 12 30 0 32 C-13 30 -23 18 -22 -4Z" fill="#f0b07f" stroke="#21110c" stroke-width="3"/>
      
    <path d="M-24 -6 C-16 -33 16 -34 25 -6 C9 -16 -10 -16 -24 -6Z" fill="#20151a"/>
    <path d="M-17 -5 C-10 -25 -2 -27 -4 2" fill="#5e575a" opacity="0.28"/>
    <path d="M5 -4 C13 -26 23 -20 21 5" fill="#5e575a" opacity="0.2"/>
  <path d="M-24 -9 L-38 -30 L-11 -20 L-3 -40 L9 -18 L33 -31 L23 -7" fill="#20151a"/>
      
    <path d="M-18 -1 C-12 -8 -3 -7 2 -1 C-4 8 -13 8 -18 -1Z" fill="#1b1110"/><path d="M-19 -7 L4 10" stroke="#0c0707" stroke-width="3" stroke-linecap="round"/>
    
    <path d="M4 3 C6 -2 14 -2 16 3 C13 7 7 7 4 3Z" fill="#fff8ea" stroke="#21110e" stroke-width="2"/>
    <ellipse cx="10" cy="3" rx="2.6" ry="4.1" fill="#ff8a6d"/>
    <ellipse cx="10" cy="4" rx="1.25" ry="2.5" fill="#21110e"/>
    <circle cx="9.1" cy="1" r="1" fill="#ffffff"/>
  
    <path d="M-15 -1 C-8 -5 -3 -5 1 -2" stroke="#20151a" stroke-width="3" stroke-linecap="round"/>
    <path d="M5 -2 C11 -6 17 -6 21 -2" stroke="#20151a" stroke-width="3" stroke-linecap="round"/>
  
      <path d="M-2 9 L3 13 L-3 15" stroke="#8b4b35" stroke-width="2" stroke-linecap="round" stroke-linejoin="round"/>
      <path d="M-8 21 C-2 18 5 18 11 22" stroke="#7a2524" stroke-width="3" stroke-linecap="round"/>
      <path d="M-18 -10 C-9 -18 10 -18 20 -10" stroke="#fff5d8" stroke-opacity="0.18" stroke-width="2" stroke-linecap="round"/>
      
    </g>
  
      <path d="M-27 8 L-11 30 L0 62 L11 30 L27 8" stroke="url(#metal-1)" stroke-width="3.5" stroke-linecap="round" opacity="0.95"/>
      <path d="M-24 23 H24 M-19 39 H19 M-12 55 H12" stroke="#fff8dc" stroke-opacity="0.3" stroke-width="2"/>
      <path d="M-33 35 C-12 44 14 54 36 44" stroke="#dd514b" stroke-width="4" stroke-linecap="round" opacity="0.78"/>
    </g>
  
            </g>
          </g>
        
          <g transform="translate(384 0)">
            <rect width="192" height="224" fill="none"/>
            <defs>
    <linearGradient id="armor-2" x1="0" y1="-80" x2="0" y2="82" gradientUnits="userSpaceOnUse">
      <stop offset="0" stop-color="#344d88"/>
      <stop offset="0.56" stop-color="#445b92"/>
      <stop offset="1" stop-color="#141725"/>
    </linearGradient>
    <linearGradient id="metal-2" x1="-38" y1="-64" x2="50" y2="78" gradientUnits="userSpaceOnUse">
      <stop offset="0" stop-color="#fff8dc"/>
      <stop offset="0.38" stop-color="#dd514b"/>
      <stop offset="1" stop-color="#7d4a25"/>
    </linearGradient>
    <radialGradient id="aura-2" cx="50%" cy="44%" r="62%">
      <stop offset="0" stop-color="#ff756d" stop-opacity="0.46"/>
      <stop offset="1" stop-color="#ff756d" stop-opacity="0"/>
    </radialGradient>
  </defs>
            <g transform="translate(96 139) scale(0.94)">
              <ellipse cx="0" cy="62" rx="45" ry="12" fill="#000" opacity="0.34"/>
              
    <g transform="rotate(10)">
      <ellipse cx="0" cy="-10" rx="48" ry="78" fill="url(#aura-2)" opacity="0.32"/>
      
    <path d="M-39 -30 C-90 4 -78 78 -24 116 C-11 80 10 80 28 116 C82 76 88 3 41 -30Z" fill="#344d88" opacity="0.5"/>
    <path d="M-48 -10 C-20 12 18 12 50 -10" stroke="#ff756d" stroke-opacity="0.26" stroke-width="5"/>
  
      <g transform="rotate(38)"><path d="M-62 76 L46 -58" stroke="#ff756d" stroke-width="15" stroke-linecap="round" opacity="0.18"/><path d="M-62 76 L46 -58" stroke="url(#metal-2)" stroke-width="7" stroke-linecap="round" stroke-linejoin="round"/><path d="M36 -72 C76 -52 76 -12 38 8 C52 -25 40 -36 15 -48Z" fill="#dd514b"/></g>
      <g transform="rotate(22)"><path d="M-86 8 C-26 -34 46 -32 94 2" stroke="#ff756d" stroke-width="9" stroke-linecap="round" opacity="0.2"/><path d="M-78 16 C-20 -18 42 -18 86 10" stroke="#fff8dc" stroke-width="3" stroke-linecap="round" opacity="0.34"/></g>
      <path d="M-34 -24 C-48 12 -44 48 -24 70 C-10 82 12 82 27 70 C47 44 48 8 35 -25 C21 -40 -20 -40 -34 -24Z" fill="url(#armor-2)" stroke="#120c0a" stroke-width="3"/>
      <path d="M-42 -18 C-63 -5 -63 20 -45 34 C-33 28 -27 4 -27 -21Z" fill="url(#metal-2)" stroke="#fff4cc" stroke-opacity="0.38" stroke-width="2"/>
      <path d="M42 -18 C63 -5 63 20 45 34 C33 28 27 4 27 -21Z" fill="url(#metal-2)" stroke="#fff4cc" stroke-opacity="0.38" stroke-width="2"/>
      <g transform="rotate(28)">
        <path d="M-26 -11 C-52 2 -63 22 -67 45" stroke="#f0b07f" stroke-width="8" stroke-linecap="round"/>
        <path d="M28 -11 C53 2 63 22 67 44" stroke="#f0b07f" stroke-width="8" stroke-linecap="round"/>
        <path d="M-29 -10 C-52 2 -60 17 -63 34" stroke="url(#metal-2)" stroke-width="4" stroke-linecap="round"/>
        <path d="M31 -10 C54 2 61 17 64 34" stroke="url(#metal-2)" stroke-width="4" stroke-linecap="round"/>
      </g>
      <path d="M-22 68 C-25 92 -34 106 -44 118" stroke="#141725" stroke-width="12" stroke-linecap="round"/>
      <path d="M22 68 C28 92 38 105 48 116" stroke="#141725" stroke-width="12" stroke-linecap="round"/>
      <path d="M-22 68 C-25 92 -34 106 -44 118" stroke="#dd514b" stroke-width="3" stroke-linecap="round" opacity="0.72"/>
      <path d="M22 68 C28 92 38 105 48 116" stroke="#dd514b" stroke-width="3" stroke-linecap="round" opacity="0.72"/>
      
    <g transform="translate(0 -52) scale(1)">
      <path d="M-29 -10 C-33 -36 33 -37 30 -9 C14 -20 -14 -20 -29 -10Z" fill="#20151a"/>
      <path d="M-22 -4 C-20 -27 19 -27 22 -4 C22 18 12 30 0 32 C-13 30 -23 18 -22 -4Z" fill="#f0b07f" stroke="#21110c" stroke-width="3"/>
      
    <path d="M-24 -6 C-16 -33 16 -34 25 -6 C9 -16 -10 -16 -24 -6Z" fill="#20151a"/>
    <path d="M-17 -5 C-10 -25 -2 -27 -4 2" fill="#5e575a" opacity="0.28"/>
    <path d="M5 -4 C13 -26 23 -20 21 5" fill="#5e575a" opacity="0.2"/>
  <path d="M-24 -9 L-38 -30 L-11 -20 L-3 -40 L9 -18 L33 -31 L23 -7" fill="#20151a"/>
      
    <path d="M-18 -1 C-12 -8 -3 -7 2 -1 C-4 8 -13 8 -18 -1Z" fill="#1b1110"/><path d="M-19 -7 L4 10" stroke="#0c0707" stroke-width="3" stroke-linecap="round"/>
    
    <path d="M4 3 C6 -2 14 -2 16 3 C13 7 7 7 4 3Z" fill="#fff8ea" stroke="#21110e" stroke-width="2"/>
    <ellipse cx="10" cy="3" rx="2.6" ry="4.1" fill="#ff8a6d"/>
    <ellipse cx="10" cy="4" rx="1.25" ry="2.5" fill="#21110e"/>
    <circle cx="9.1" cy="1" r="1" fill="#ffffff"/>
  
    <path d="M-15 -1 C-8 -5 -3 -5 1 -2" stroke="#20151a" stroke-width="3" stroke-linecap="round"/>
    <path d="M5 -2 C11 -6 17 -6 21 -2" stroke="#20151a" stroke-width="3" stroke-linecap="round"/>
  
      <path d="M-2 9 L3 13 L-3 15" stroke="#8b4b35" stroke-width="2" stroke-linecap="round" stroke-linejoin="round"/>
      <path d="M-8 21 C-2 18 5 18 11 22" stroke="#7a2524" stroke-width="3" stroke-linecap="round"/>
      <path d="M-18 -10 C-9 -18 10 -18 20 -10" stroke="#fff5d8" stroke-opacity="0.18" stroke-width="2" stroke-linecap="round"/>
      
    </g>
  
      <path d="M-27 8 L-11 30 L0 62 L11 30 L27 8" stroke="url(#metal-2)" stroke-width="3.5" stroke-linecap="round" opacity="0.95"/>
      <path d="M-24 23 H24 M-19 39 H19 M-12 55 H12" stroke="#fff8dc" stroke-opacity="0.3" stroke-width="2"/>
      <path d="M-33 46 C-12 55 14 43 36 33" stroke="#dd514b" stroke-width="4" stroke-linecap="round" opacity="0.78"/>
    </g>
  
            </g>
          </g>
        
          <g transform="translate(576 0)">
            <rect width="192" height="224" fill="none"/>
            <defs>
    <linearGradient id="armor-3" x1="0" y1="-80" x2="0" y2="82" gradientUnits="userSpaceOnUse">
      <stop offset="0" stop-color="#344d88"/>
      <stop offset="0.56" stop-color="#445b92"/>
      <stop offset="1" stop-color="#141725"/>
    </linearGradient>
    <linearGradient id="metal-3" x1="-38" y1="-64" x2="50" y2="78" gradientUnits="userSpaceOnUse">
      <stop offset="0" stop-color="#fff8dc"/>
      <stop offset="0.38" stop-color="#dd514b"/>
      <stop offset="1" stop-color="#7d4a25"/>
    </linearGradient>
    <radialGradient id="aura-3" cx="50%" cy="44%" r="62%">
      <stop offset="0" stop-color="#ff756d" stop-opacity="0.46"/>
      <stop offset="1" stop-color="#ff756d" stop-opacity="0"/>
    </radialGradient>
  </defs>
            <g transform="translate(96 139) scale(0.94)">
              <ellipse cx="0" cy="62" rx="45" ry="12" fill="#000" opacity="0.34"/>
              
    <g transform="rotate(3)">
      <ellipse cx="0" cy="-10" rx="48" ry="78" fill="url(#aura-3)" opacity="0.32"/>
      
    <path d="M-39 -30 C-90 4 -78 78 -24 116 C-11 80 10 80 28 116 C82 76 88 3 41 -30Z" fill="#344d88" opacity="0.5"/>
    <path d="M-48 -10 C-20 12 18 12 50 -10" stroke="#ff756d" stroke-opacity="0.26" stroke-width="5"/>
  
      <g transform="rotate(16)"><path d="M-62 76 L46 -58" stroke="#ff756d" stroke-width="15" stroke-linecap="round" opacity="0.18"/><path d="M-62 76 L46 -58" stroke="url(#metal-3)" stroke-width="7" stroke-linecap="round" stroke-linejoin="round"/><path d="M36 -72 C76 -52 76 -12 38 8 C52 -25 40 -36 15 -48Z" fill="#dd514b"/></g>
      <g transform="rotate(10)"><path d="M-86 8 C-26 -34 46 -32 94 2" stroke="#ff756d" stroke-width="9" stroke-linecap="round" opacity="0.2"/><path d="M-78 16 C-20 -18 42 -18 86 10" stroke="#fff8dc" stroke-width="3" stroke-linecap="round" opacity="0.34"/></g>
      <path d="M-34 -24 C-48 12 -44 48 -24 70 C-10 82 12 82 27 70 C47 44 48 8 35 -25 C21 -40 -20 -40 -34 -24Z" fill="url(#armor-3)" stroke="#120c0a" stroke-width="3"/>
      <path d="M-42 -18 C-63 -5 -63 20 -45 34 C-33 28 -27 4 -27 -21Z" fill="url(#metal-3)" stroke="#fff4cc" stroke-opacity="0.38" stroke-width="2"/>
      <path d="M42 -18 C63 -5 63 20 45 34 C33 28 27 4 27 -21Z" fill="url(#metal-3)" stroke="#fff4cc" stroke-opacity="0.38" stroke-width="2"/>
      <g transform="rotate(10)">
        <path d="M-26 -11 C-52 2 -63 22 -67 45" stroke="#f0b07f" stroke-width="8" stroke-linecap="round"/>
        <path d="M28 -11 C53 2 63 22 67 44" stroke="#f0b07f" stroke-width="8" stroke-linecap="round"/>
        <path d="M-29 -10 C-52 2 -60 17 -63 34" stroke="url(#metal-3)" stroke-width="4" stroke-linecap="round"/>
        <path d="M31 -10 C54 2 61 17 64 34" stroke="url(#metal-3)" stroke-width="4" stroke-linecap="round"/>
      </g>
      <path d="M-22 68 C-25 92 -34 106 -44 118" stroke="#141725" stroke-width="12" stroke-linecap="round"/>
      <path d="M22 68 C28 92 38 105 48 116" stroke="#141725" stroke-width="12" stroke-linecap="round"/>
      <path d="M-22 68 C-25 92 -34 106 -44 118" stroke="#dd514b" stroke-width="3" stroke-linecap="round" opacity="0.72"/>
      <path d="M22 68 C28 92 38 105 48 116" stroke="#dd514b" stroke-width="3" stroke-linecap="round" opacity="0.72"/>
      
    <g transform="translate(0 -52) scale(1)">
      <path d="M-29 -10 C-33 -36 33 -37 30 -9 C14 -20 -14 -20 -29 -10Z" fill="#20151a"/>
      <path d="M-22 -4 C-20 -27 19 -27 22 -4 C22 18 12 30 0 32 C-13 30 -23 18 -22 -4Z" fill="#f0b07f" stroke="#21110c" stroke-width="3"/>
      
    <path d="M-24 -6 C-16 -33 16 -34 25 -6 C9 -16 -10 -16 -24 -6Z" fill="#20151a"/>
    <path d="M-17 -5 C-10 -25 -2 -27 -4 2" fill="#5e575a" opacity="0.28"/>
    <path d="M5 -4 C13 -26 23 -20 21 5" fill="#5e575a" opacity="0.2"/>
  <path d="M-24 -9 L-38 -30 L-11 -20 L-3 -40 L9 -18 L33 -31 L23 -7" fill="#20151a"/>
      
    <path d="M-18 -1 C-12 -8 -3 -7 2 -1 C-4 8 -13 8 -18 -1Z" fill="#1b1110"/><path d="M-19 -7 L4 10" stroke="#0c0707" stroke-width="3" stroke-linecap="round"/>
    
    <path d="M4 3 C6 -2 14 -2 16 3 C13 7 7 7 4 3Z" fill="#fff8ea" stroke="#21110e" stroke-width="2"/>
    <ellipse cx="10" cy="3" rx="2.6" ry="4.1" fill="#ff8a6d"/>
    <ellipse cx="10" cy="4" rx="1.25" ry="2.5" fill="#21110e"/>
    <circle cx="9.1" cy="1" r="1" fill="#ffffff"/>
  
    <path d="M-15 -1 C-8 -5 -3 -5 1 -2" stroke="#20151a" stroke-width="3" stroke-linecap="round"/>
    <path d="M5 -2 C11 -6 17 -6 21 -2" stroke="#20151a" stroke-width="3" stroke-linecap="round"/>
  
      <path d="M-2 9 L3 13 L-3 15" stroke="#8b4b35" stroke-width="2" stroke-linecap="round" stroke-linejoin="round"/>
      <path d="M-8 21 C-2 18 5 18 11 22" stroke="#7a2524" stroke-width="3" stroke-linecap="round"/>
      <path d="M-18 -10 C-9 -18 10 -18 20 -10" stroke="#fff5d8" stroke-opacity="0.18" stroke-width="2" stroke-linecap="round"/>
      
    </g>
  
      <path d="M-27 8 L-11 30 L0 62 L11 30 L27 8" stroke="url(#metal-3)" stroke-width="3.5" stroke-linecap="round" opacity="0.95"/>
      <path d="M-24 23 H24 M-19 39 H19 M-12 55 H12" stroke="#fff8dc" stroke-opacity="0.3" stroke-width="2"/>
      <path d="M-33 42 C-12 51 14 47 36 37" stroke="#dd514b" stroke-width="4" stroke-linecap="round" opacity="0.78"/>
    </g>
  
            </g>
          </g>
        </svg>