<svg xmlns="http://www.w3.org/2000/svg" width="720" height="1040" viewBox="0 0 720 1040" fill="none">
    <defs>
      
    <linearGradient id="armor" x1="0" y1="-80" x2="0" y2="82" gradientUnits="userSpaceOnUse">
      <stop offset="0" stop-color="#c24a3c"/>
      <stop offset="0.56" stop-color="#c7584c"/>
      <stop offset="1" stop-color="#361111"/>
    </linearGradient>
    <linearGradient id="metal" x1="-38" y1="-64" x2="50" y2="78" gradientUnits="userSpaceOnUse">
      <stop offset="0" stop-color="#fff8dc"/>
      <stop offset="0.38" stop-color="#f2bb64"/>
      <stop offset="1" stop-color="#7d4a25"/>
    </linearGradient>
    <radialGradient id="aura" cx="50%" cy="44%" r="62%">
      <stop offset="0" stop-color="#ff9850" stop-opacity="0.46"/>
      <stop offset="1" stop-color="#ff9850" stop-opacity="0"/>
    </radialGradient>
  
      <linearGradient id="cardBg" x1="0" y1="0" x2="1" y2="1">
        <stop offset="0" stop-color="#c24a3c"/>
        <stop offset="0.42" stop-color="#361111"/>
        <stop offset="1" stop-color="#0a070a"/>
      </linearGradient>
      <radialGradient id="stageGlow" cx="48%" cy="36%" r="64%">
        <stop offset="0" stop-color="#ff9850" stop-opacity="0.72"/>
        <stop offset="0.34" stop-color="#c24a3c" stop-opacity="0.24"/>
        <stop offset="1" stop-color="#000000" stop-opacity="0"/>
      </radialGradient>
      <pattern id="foil" width="72" height="72" patternUnits="userSpaceOnUse" patternTransform="rotate(22)">
        <path d="M0 36 H72" stroke="#ffffff" stroke-opacity="0.08" stroke-width="2"/>
        <path d="M0 54 H72" stroke="#f2bb64" stroke-opacity="0.13" stroke-width="1"/>
      </pattern>
      <filter id="cardShadow" x="-35%" y="-35%" width="170%" height="170%">
        <feDropShadow dx="0" dy="20" stdDeviation="18" flood-color="#000" flood-opacity="0.58"/>
      </filter>
    </defs>
    <rect width="720" height="1040" rx="42" fill="url(#cardBg)"/>
    <rect width="720" height="1040" rx="42" fill="url(#foil)"/>
    <rect width="720" height="1040" rx="42" fill="url(#stageGlow)"/>
    <path d="M-30 690 L760 134 L760 316 L-30 872Z" fill="#ffffff" opacity="0.06"/>
    <path d="M-20 790 L740 250" stroke="#ff9850" stroke-opacity="0.24" stroke-width="18"/>
    <path d="M68 156 C188 42 486 42 646 146 C558 170 492 232 438 322 C330 188 202 190 68 156Z" fill="#fff8d4" opacity="0.09"/>
    <g opacity="0.26" stroke="#f2bb64" stroke-width="4" fill="none">
      <path d="M74 786 C230 714 330 842 494 734 C564 688 606 692 656 662"/>
      <path d="M82 842 C260 770 318 910 526 792 C584 760 624 768 670 726"/>
      <path d="M106 232 L620 736"/>
    </g>
    <path d="M78 106 L82 110 L78 114 L74 110Z" fill="#f2bb64" opacity="0.16"/><path d="M235 355 L241 361 L235 367 L229 361Z" fill="#f2bb64" opacity="0.22"/><path d="M392 604 L400 612 L392 620 L384 612Z" fill="#f2bb64" opacity="0.28"/><path d="M549 853 L559 863 L549 873 L539 863Z" fill="#f2bb64" opacity="0.16"/><path d="M146 350 L150 354 L146 358 L142 354Z" fill="#f2bb64" opacity="0.22"/><path d="M303 599 L309 605 L303 611 L297 605Z" fill="#f2bb64" opacity="0.28"/><path d="M460 848 L468 856 L460 864 L452 856Z" fill="#f2bb64" opacity="0.16"/><path d="M617 337 L627 347 L617 357 L607 347Z" fill="#f2bb64" opacity="0.22"/><path d="M214 594 L218 598 L214 602 L210 598Z" fill="#f2bb64" opacity="0.28"/><path d="M371 843 L377 849 L371 855 L365 849Z" fill="#f2bb64" opacity="0.16"/><path d="M528 332 L536 340 L528 348 L520 340Z" fill="#f2bb64" opacity="0.22"/><path d="M125 581 L135 591 L125 601 L115 591Z" fill="#f2bb64" opacity="0.28"/><path d="M282 838 L286 842 L282 846 L278 842Z" fill="#f2bb64" opacity="0.16"/><path d="M439 327 L445 333 L439 339 L433 333Z" fill="#f2bb64" opacity="0.22"/><path d="M596 576 L604 584 L596 592 L588 584Z" fill="#f2bb64" opacity="0.28"/><path d="M193 825 L203 835 L193 845 L183 835Z" fill="#f2bb64" opacity="0.16"/><path d="M350 322 L354 326 L350 330 L346 326Z" fill="#f2bb64" opacity="0.22"/><path d="M507 571 L513 577 L507 583 L501 577Z" fill="#f2bb64" opacity="0.28"/><path d="M104 820 L112 828 L104 836 L96 828Z" fill="#f2bb64" opacity="0.16"/><path d="M261 309 L271 319 L261 329 L251 319Z" fill="#f2bb64" opacity="0.22"/><path d="M418 566 L422 570 L418 574 L414 570Z" fill="#f2bb64" opacity="0.28"/><path d="M575 815 L581 821 L575 827 L569 821Z" fill="#f2bb64" opacity="0.16"/>
    <g filter="url(#cardShadow)" transform="translate(360 606) scale(3.35)">
      
    <g transform="rotate(-2)">
      <ellipse cx="0" cy="-10" rx="58" ry="94" fill="url(#aura)" opacity="0.76"/>
      
    <path d="M-39 -30 C-90 4 -78 78 -24 116 C-11 80 10 80 28 116 C82 76 88 3 41 -30Z" fill="#c24a3c" opacity="0.72"/>
    <path d="M-48 -10 C-20 12 18 12 50 -10" stroke="#ff9850" stroke-opacity="0.26" stroke-width="5"/>
  
      <g transform="rotate(-8)"><path d="M-58 48 C-12 -76 52 -70 82 42 C36 8 -10 10 -58 48Z" fill="#f2bb64" opacity="0.88"/><path d="M-44 38 L62 -24 M-24 20 L58 -50 M0 10 L42 -66 M22 13 L74 -12" stroke="#fff8dc" stroke-opacity="0.54" stroke-width="3"/></g>
      
      <path d="M-34 -24 C-48 12 -44 48 -24 70 C-10 82 12 82 27 70 C47 44 48 8 35 -25 C21 -40 -20 -40 -34 -24Z" fill="url(#armor)" stroke="#120c0a" stroke-width="3"/>
      <path d="M-42 -18 C-63 -5 -63 20 -45 34 C-33 28 -27 4 -27 -21Z" fill="url(#metal)" stroke="#fff4cc" stroke-opacity="0.38" stroke-width="2"/>
      <path d="M42 -18 C63 -5 63 20 45 34 C33 28 27 4 27 -21Z" fill="url(#metal)" stroke="#fff4cc" stroke-opacity="0.38" stroke-width="2"/>
      <g transform="rotate(-12)">
        <path d="M-26 -11 C-52 2 -63 22 -67 45" stroke="#f0b07f" stroke-width="8" stroke-linecap="round"/>
        <path d="M28 -11 C53 2 63 22 67 44" stroke="#f0b07f" stroke-width="8" stroke-linecap="round"/>
        <path d="M-29 -10 C-52 2 -60 17 -63 34" stroke="url(#metal)" stroke-width="4" stroke-linecap="round"/>
        <path d="M31 -10 C54 2 61 17 64 34" stroke="url(#metal)" stroke-width="4" stroke-linecap="round"/>
      </g>
      <path d="M-22 68 C-25 92 -34 106 -44 118" stroke="#361111" stroke-width="12" stroke-linecap="round"/>
      <path d="M22 68 C28 92 38 105 48 116" stroke="#361111" stroke-width="12" stroke-linecap="round"/>
      <path d="M-22 68 C-25 92 -34 106 -44 118" stroke="#f2bb64" stroke-width="3" stroke-linecap="round" opacity="0.72"/>
      <path d="M22 68 C28 92 38 105 48 116" stroke="#f2bb64" stroke-width="3" stroke-linecap="round" opacity="0.72"/>
      
    <g transform="translate(0 -52) scale(1.08)">
      <path d="M-28 -11 C-62 6 -56 54 -36 80 C-18 54 -15 18 -17 -8Z" fill="#241019"/><path d="M26 -10 C62 8 56 53 36 80 C18 54 15 18 17 -8Z" fill="#241019"/>
      <path d="M-22 -4 C-20 -27 19 -27 22 -4 C22 18 12 30 0 32 C-13 30 -23 18 -22 -4Z" fill="#f0b07f" stroke="#21110c" stroke-width="3"/>
      
    <path d="M-24 -6 C-16 -33 16 -34 25 -6 C9 -16 -10 -16 -24 -6Z" fill="#241019"/>
    <path d="M-17 -5 C-10 -25 -2 -27 -4 2" fill="#615359" opacity="0.28"/>
    <path d="M5 -4 C13 -26 23 -20 21 5" fill="#615359" opacity="0.2"/>
  
      
    
    <path d="M-15 3 C-13 -2 -5 -2 -3 3 C-6 7 -12 7 -15 3Z" fill="#fff8ea" stroke="#21110e" stroke-width="2"/>
    <ellipse cx="-9" cy="3" rx="2.6" ry="4.1" fill="#ffbc65"/>
    <ellipse cx="-9" cy="4" rx="1.25" ry="2.5" fill="#21110e"/>
    <circle cx="-9.9" cy="1" r="1" fill="#ffffff"/>
  
    
    <path d="M4 3 C6 -2 14 -2 16 3 C13 7 7 7 4 3Z" fill="#fff8ea" stroke="#21110e" stroke-width="2"/>
    <ellipse cx="10" cy="3" rx="2.6" ry="4.1" fill="#ffbc65"/>
    <ellipse cx="10" cy="4" rx="1.25" ry="2.5" fill="#21110e"/>
    <circle cx="9.1" cy="1" r="1" fill="#ffffff"/>
  
    <path d="M-15 -1 C-8 -5 -3 -5 1 -2" stroke="#241019" stroke-width="3" stroke-linecap="round"/>
    <path d="M5 -2 C11 -6 17 -6 21 -2" stroke="#241019" stroke-width="3" stroke-linecap="round"/>
  
      <path d="M-2 9 L3 13 L-3 15" stroke="#8b4b35" stroke-width="2" stroke-linecap="round" stroke-linejoin="round"/>
      <path d="M-7 20 C-1 23 6 23 11 20" stroke="#7a3025" stroke-width="3" stroke-linecap="round"/>
      <path d="M-18 -10 C-9 -18 10 -18 20 -10" stroke="#fff5d8" stroke-opacity="0.18" stroke-width="2" stroke-linecap="round"/>
      
    </g>
  
      <path d="M-27 8 L-11 30 L0 62 L11 30 L27 8" stroke="url(#metal)" stroke-width="3.5" stroke-linecap="round" opacity="0.95"/>
      <path d="M-24 23 H24 M-19 39 H19 M-12 55 H12" stroke="#fff8dc" stroke-opacity="0.3" stroke-width="2"/>
      <path d="M-33 40 C-12 49 14 49 36 39" stroke="#f2bb64" stroke-width="4" stroke-linecap="round" opacity="0.78"/>
    </g>
  
    </g>
    <rect x="28" y="28" width="664" height="984" rx="34" fill="none" stroke="#f2bb64" stroke-opacity="0.88" stroke-width="5"/>
    <rect x="48" y="48" width="624" height="944" rx="24" fill="none" stroke="#fff8dc" stroke-opacity="0.24" stroke-width="2"/>
    <path d="M66 110 H184 M66 110 V228 M654 110 H536 M654 110 V228" stroke="#f2bb64" stroke-width="5" stroke-linecap="round" opacity="0.8"/>
    <path d="M66 930 H184 M66 930 V812 M654 930 H536 M654 930 V812" stroke="#f2bb64" stroke-width="5" stroke-linecap="round" opacity="0.8"/>
    <path d="M126 906 C248 954 486 954 604 902" stroke="#ff9850" stroke-opacity="0.38" stroke-width="8" stroke-linecap="round"/>
  </svg>